<?xml version="1.0" encoding="UTF-8"?>
<svg version="1.1" xmlns="http://www.w3.org/2000/svg" width="460" height="300">
<path d="M0 0 C2.32447492 3.6527463 3.04479085 6.91434437 3.5390625 11.1328125 C3.64968018 11.97078369 3.76029785 12.80875488 3.87426758 13.67211914 C4.11150472 15.5046805 4.33907407 17.33851346 4.55810547 19.17333984 C4.90526829 21.93778451 5.32609794 24.681865 5.76171875 27.43359375 C8.09446202 43.38758147 8.21023148 59.28596268 8.2265625 75.3828125 C8.23180435 77.04472122 8.23180435 77.04472122 8.2371521 78.74020386 C8.33250967 133.30743688 -6.55473921 186.92819732 -45.72167969 226.89038086 C-51.31492069 232.49254579 -57.01670694 237.92278149 -63.0859375 243.0078125 C-64.23685407 243.9973306 -65.38646148 244.98837231 -66.53515625 245.98046875 C-67.80196569 247.07305308 -69.06889376 248.16549988 -70.3359375 249.2578125 C-71.24098022 250.03838013 -71.24098022 250.03838013 -72.16430664 250.8347168 C-81.00796171 258.42221994 -81.00796171 258.42221994 -87.0859375 258.0078125 C-87.95634308 255.59662687 -88.24971751 254.42663302 -87.30078125 252 C-86.87925781 251.30132812 -86.45773438 250.60265625 -86.0234375 249.8828125 C-85.56751221 249.12476318 -85.11158691 248.36671387 -84.6418457 247.58569336 C-83.6917716 246.01157875 -82.73710349 244.44021048 -81.77441406 242.8737793 C-77.20267181 235.38193103 -73.02206325 227.68931893 -68.8984375 219.9453125 C-68.52731842 219.24860443 -68.15619934 218.55189636 -67.77383423 217.83407593 C-62.79836973 208.46048315 -58.05983341 199.03258313 -53.7734375 189.3203125 C-53.34844971 188.36181396 -52.92346191 187.40331543 -52.4855957 186.41577148 C-48.32430738 176.7281027 -45.06597651 166.74498888 -43.3984375 156.3203125 C-43.28177734 155.65193359 -43.16511719 154.98355469 -43.04492188 154.29492188 C-41.47327165 144.98045246 -40.94151377 135.82294693 -41.0234375 126.3828125 C-41.03020508 124.87654297 -41.03020508 124.87654297 -41.03710938 123.33984375 C-41.04874783 120.89576779 -41.0650951 118.4518243 -41.0859375 116.0078125 C-42.0759375 116.0078125 -43.0659375 116.0078125 -44.0859375 116.0078125 C-45.90645168 118.36751391 -47.53439443 120.69959946 -49.1484375 123.1953125 C-50.13528863 124.67370245 -51.12491839 126.15024104 -52.1171875 127.625 C-52.61476563 128.36588867 -53.11234375 129.10677734 -53.625 129.87011719 C-59.37989758 138.29088644 -65.8512486 146.06217437 -72.79296875 153.53125 C-74.73696653 155.63090007 -76.6085517 157.76550741 -78.4609375 159.9453125 C-97.97153177 182.31561563 -97.97153177 182.31561563 -107.3984375 183.3828125 C-111.18263445 182.99797891 -112.18415532 182.53643704 -114.69165039 179.84082031 C-127.87421502 162.51028359 -133.07980601 142.70540935 -134.4050293 121.45849609 C-134.49844604 120.03077881 -134.49844604 120.03077881 -134.59375 118.57421875 C-134.64160645 117.71771729 -134.68946289 116.86121582 -134.73876953 115.97875977 C-134.85333496 115.32834717 -134.96790039 114.67793457 -135.0859375 114.0078125 C-136.0759375 113.5128125 -136.0759375 113.5128125 -137.0859375 113.0078125 C-141.53555895 116.99822035 -144.21132257 121.22665929 -146.9609375 126.5078125 C-147.39148438 127.33079834 -147.82203125 128.15378418 -148.265625 129.00170898 C-165.11495905 162.32741006 -164.75784089 197.29892027 -153.71484375 232.3203125 C-151.97645312 237.54709476 -149.65560342 242.35126018 -147.2109375 247.28515625 C-145.62970945 251.11194775 -145.60652816 253.93283312 -146.0859375 258.0078125 C-149.73374871 257.74538004 -151.62872123 257.41337027 -154.40234375 254.953125 C-180.42212998 222.28132386 -196.13606304 184.47439721 -191.69140625 141.91015625 C-188.93707435 119.72642008 -181.6662782 98.11671875 -172.0859375 78.0078125 C-171.61075684 76.99605957 -171.13557617 75.98430664 -170.64599609 74.94189453 C-169.12595325 71.72421774 -167.58058373 68.52018406 -166.0234375 65.3203125 C-165.55325195 64.34030273 -165.08306641 63.36029297 -164.59863281 62.35058594 C-157.1705794 47.44859546 -147.7879312 38.4614187 -132.0859375 33.0078125 C-111.67416897 26.73698052 -111.67416897 26.73698052 -105.0859375 29.0703125 C-102.38213008 31.68962593 -102.36824837 33.27262247 -102.0859375 37.0078125 C-102.64705014 39.63291736 -103.28150786 42.12535737 -104.0234375 44.6953125 C-109.38808123 65.6406881 -104.99284293 87.5962556 -99.0859375 108.0078125 C-96.61756635 107.64468227 -96.61756635 107.64468227 -94.0859375 107.0078125 C-92.95594962 105.20231255 -92.95594962 105.20231255 -92.0859375 103.0078125 C-90.77331504 101.45098121 -89.41348425 99.93342251 -88.0234375 98.4453125 C-66.81127477 75.20327774 -41.1954377 42.49892302 -40.58984375 9.91796875 C-39.91595027 6.0261033 -39.09710749 4.60673898 -36.0859375 2.0078125 C-32.62759595 0.8140838 -29.13229445 0.25144723 -25.5234375 -0.3046875 C-24.58435547 -0.47291016 -23.64527344 -0.64113281 -22.67773438 -0.81445312 C-5.68718954 -3.67147679 -5.68718954 -3.67147679 0 0 Z " fill="#C70525" transform="translate(315.0859375,20.9921875)"/>
<path d="M0 0 C1.09374411 3.28123232 0.89111758 4.29338184 0.125 7.5625 C-6.31511659 35.18243664 0.48471951 67.27091828 12.875 92.27734375 C14.45622805 96.10413525 14.47940934 98.92502062 14 103 C10.05250065 102.77049422 8.364098 102.3418969 5.4375 99.59375 C4.2309375 98.06234375 4.2309375 98.06234375 3 96.5 C2.57283691 95.96407227 2.14567383 95.42814453 1.70556641 94.87597656 C-1.79272692 90.42937461 -5.01425113 85.80632746 -8 81 C-6.515 80.505 -6.515 80.505 -5 80 C-5.33 79.01 -5.66 78.02 -6 77 C-4.81380099 73.73795271 -3.99931194 72.99954129 -1 71 C-1.165 69.824375 -1.33 68.64875 -1.5 67.4375 C-2.27271604 60.64630549 -2.0809125 53.82362061 -2 47 C-2.66 47 -3.32 47 -4 47 C-4.07481328 42.05618504 -4.12891154 37.11270811 -4.16479492 32.16845703 C-4.17977234 30.49066417 -4.20016154 28.81290972 -4.22631836 27.13525391 C-4.50704826 8.65111671 -4.50704826 8.65111671 -1 1 C-0.67 0.67 -0.34 0.34 0 0 Z " fill="#BF0D2B" transform="translate(155,176)"/>
<path d="M0 0 C0.66 0.33 1.32 0.66 2 1 C0.44169593 5.67491221 -1.32279709 9.69147535 -3.9375 13.875 C-6.53428918 18.0465747 -8.39355539 22.20306557 -10.12109375 26.79296875 C-11.15149583 29.38042286 -12.45631862 31.68447793 -14 34 C-13.113125 34.268125 -12.22625 34.53625 -11.3125 34.8125 C-8.2211019 35.92073705 -5.75539549 37.23960844 -3 39 C-2.34 39.33 -1.68 39.66 -1 40 C-20.91329844 58.7437384 -20.91329844 58.7437384 -26.5625 59.4375 C-27.366875 59.293125 -28.17125 59.14875 -29 59 C-29.87040558 56.58881437 -30.16378001 55.41882052 -29.21484375 52.9921875 C-28.79332031 52.29351562 -28.37179688 51.59484375 -27.9375 50.875 C-27.25252441 49.73538818 -27.25252441 49.73538818 -26.55371094 48.57275391 C-25.61274898 47.01463682 -24.66591904 45.46001506 -23.70825195 43.91210938 C-18.86190766 36.00875901 -14.57388566 27.82063645 -10.25 19.625 C-9.47550046 18.16263326 -8.70076242 16.70039281 -7.92578125 15.23828125 C-3.88855514 7.6574336 -3.88855514 7.6574336 0 0 Z " fill="#C50524" transform="translate(257,220)"/>
<path d="M0 0 C2.27065098 5.49373308 1.80020676 9.2501292 0.125 14.75 C-5.2566995 35.14816086 -0.61266038 55.84558302 4 76 C3.34 76 2.68 76 2 76 C-0.28320103 69.25694629 -1.63169105 62.64597166 -2.5703125 55.58984375 C-2.72919025 53.07686468 -2.72919025 53.07686468 -4 52 C-4.10085654 49.57506627 -4.13972332 47.17924339 -4.1328125 44.75390625 C-4.13376923 44.02759506 -4.13472595 43.30128387 -4.13571167 42.55296326 C-4.13639344 41.0137422 -4.13453937 39.47451829 -4.13037109 37.93530273 C-4.12503043 35.57594343 -4.13031215 33.21677516 -4.13671875 30.85742188 C-4.13605782 29.36458291 -4.13477634 27.87174407 -4.1328125 26.37890625 C-4.13483673 25.67053116 -4.13686096 24.96215607 -4.13894653 24.23231506 C-4.11495714 19.22991429 -4.11495714 19.22991429 -3 17 C-2.92983746 14.23734992 -3.00292758 11.48923369 -3.0625 8.7265625 C-3.00656747 6.28650607 -2.70463195 4.32308347 -2 2 C-11.73872305 1.41761789 -19.78135978 2.90831405 -29 6 C-30.65708984 6.46792969 -30.65708984 6.46792969 -32.34765625 6.9453125 C-33.22292969 7.29335938 -34.09820312 7.64140625 -35 8 C-35.33 8.99 -35.66 9.98 -36 11 C-38.32671865 12.01529541 -40.6603447 13.01488198 -43 14 C-43.66 14.99 -44.32 15.98 -45 17 C-44.34 17.33 -43.68 17.66 -43 18 C-44.093125 18.4125 -45.18625 18.825 -46.3125 19.25 C-49.55719525 20.61722038 -51.05024489 22.02405799 -53 25 C-53.66 25 -54.32 25 -55 25 C-55.99 27.475 -55.99 27.475 -57 30 C-57.33 29.34 -57.66 28.68 -58 28 C-52.27361855 16.10674622 -43.33292456 8.33476757 -31 4 C-6.6504708 -3.71189068 -6.6504708 -3.71189068 0 0 Z " fill="#B33048" transform="translate(211,51)"/>
<path d="M0 0 C0.66 0 1.32 0 2 0 C1.81824219 0.53367187 1.63648438 1.06734375 1.44921875 1.6171875 C-2.67078731 13.59393369 -2.67078731 13.59393369 -5 26 C-5.99 26.33 -6.98 26.66 -8 27 C-8 28.65 -8 30.3 -8 32 C-7.01 32.33 -6.02 32.66 -5 33 C-5 34.32 -5 35.64 -5 37 C-9.22222222 41 -9.22222222 41 -12 41 C-12.31507274 42.52030242 -12.62690732 44.041276 -12.9375 45.5625 C-13.11152344 46.40941406 -13.28554687 47.25632813 -13.46484375 48.12890625 C-14.89353805 55.79379901 -15.18312101 63.15603632 -15.1875 70.9375 C-15.19974609 72.07896484 -15.21199219 73.22042969 -15.22460938 74.39648438 C-15.23410853 79.87749817 -15.03082365 84.73082945 -13.47875977 89.98657227 C-12.46801702 94.23725835 -12.51901614 98.64951242 -12.375 103 C-12.33632812 103.96550781 -12.29765625 104.93101562 -12.2578125 105.92578125 C-12.16443059 108.2836744 -12.07865671 110.64157756 -12 113 C-13.59873668 110.114706 -14.36639937 107.66364455 -14.81640625 104.40234375 C-14.94039795 103.52392822 -15.06438965 102.6455127 -15.19213867 101.74047852 C-15.31435791 100.81549561 -15.43657715 99.8905127 -15.5625 98.9375 C-15.69180908 97.98738037 -15.82111816 97.03726074 -15.9543457 96.05834961 C-17.69520627 83.06816615 -17.69520627 83.06816615 -18 77 C-18.05285156 75.97777344 -18.10570313 74.95554687 -18.16015625 73.90234375 C-18.82318704 48.79365613 -11.09496241 22.32861185 0 0 Z " fill="#AF2B43" transform="translate(141,104)"/>
<path d="M0 0 C1.09374411 3.28123232 0.89111758 4.29338184 0.125 7.5625 C-1.88797776 16.19562294 -2.18801019 24.74141747 -1.75 33.5625 C-1.70407715 34.51487549 -1.6581543 35.46725098 -1.61083984 36.44848633 C-0.9432557 48.21982621 1.03845616 59.59919322 4.44921875 70.8984375 C5 73 5 73 5 76 C3.68 75.67 2.36 75.34 1 75 C-1.71667939 65.41076859 -2.36901501 56.88140184 -2 47 C-2.66 47 -3.32 47 -4 47 C-4.07481328 42.05618504 -4.12891154 37.11270811 -4.16479492 32.16845703 C-4.17977234 30.49066417 -4.20016154 28.81290972 -4.22631836 27.13525391 C-4.50704826 8.65111671 -4.50704826 8.65111671 -1 1 C-0.67 0.67 -0.34 0.34 0 0 Z " fill="#B5253D" transform="translate(155,176)"/>
<path d="M0 0 C3 1 3 1 3.80859375 2.58984375 C4.08840219 6.11314592 3.00818412 9.20693333 2.0625 12.5625 C-3.13488601 33.1023397 1.36105678 53.73074359 6 74 C5.34 74 4.68 74 4 74 C1.71679897 67.25694629 0.36830895 60.64597166 -0.5703125 53.58984375 C-0.72919025 51.07686468 -0.72919025 51.07686468 -2 50 C-2.10085654 47.57506627 -2.13972332 45.17924339 -2.1328125 42.75390625 C-2.13376923 42.02759506 -2.13472595 41.30128387 -2.13571167 40.55296326 C-2.13639344 39.0137422 -2.13453937 37.47451829 -2.13037109 35.93530273 C-2.12503043 33.57594343 -2.13031215 31.21677516 -2.13671875 28.85742188 C-2.13605782 27.36458291 -2.13477634 25.87174407 -2.1328125 24.37890625 C-2.13483673 23.67053116 -2.13686096 22.96215607 -2.13894653 22.23231506 C-2.11495714 17.22991429 -2.11495714 17.22991429 -1 15 C-0.92983746 12.23734992 -1.00292758 9.48923369 -1.0625 6.7265625 C-1.00656747 4.28650607 -0.70463195 2.32308347 0 0 Z " fill="#B9233B" transform="translate(209,53)"/>
<path d="M0 0 C0.66 0.33 1.32 0.66 2 1 C1.73445312 1.51949219 1.46890625 2.03898438 1.1953125 2.57421875 C-1.06398592 7.01456731 -1.06398592 7.01456731 -2.9375 11.625 C-4.39949443 14.89298756 -6.71561564 17.25873877 -9 20 C-10.3049484 22.7124618 -10.3049484 22.7124618 -11 25 C-7.51190809 24.22969878 -7.51190809 24.22969878 -4 23 C-3.67 22.01 -3.34 21.02 -3 20 C-1.68352881 19.30062468 -0.34977849 18.63270867 1 18 C1.33 17.34 1.66 16.68 2 16 C2.7425 15.566875 3.485 15.13375 4.25 14.6875 C7.14547216 13.06502673 7.14547216 13.06502673 9.5625 10.375 C11.88362818 8.11338793 12.86111862 7.3487646 16 7 C12.18190971 12.13467315 7.65119267 15.90498517 2.6484375 19.875 C0.57204266 21.54101592 -1.36763921 23.2514127 -3.3125 25.0625 C-6.47779388 27.34445605 -8.18087612 27.45465761 -12 27 C-12.87040558 24.58881437 -13.16378001 23.41882052 -12.21484375 20.9921875 C-11.79332031 20.29351562 -11.37179688 19.59484375 -10.9375 18.875 C-10.47601563 18.09511719 -10.01453125 17.31523437 -9.5390625 16.51171875 C-9.03117188 15.68285156 -8.52328125 14.85398437 -8 14 C-6.93711879 12.22939545 -5.87461526 10.45856412 -4.8125 8.6875 C-4.32394531 7.88699219 -3.83539063 7.08648437 -3.33203125 6.26171875 C-2.12401719 4.21057464 -1.03461602 2.14278294 0 0 Z " fill="#AB1E38" transform="translate(240,252)"/>
<path d="M0 0 C0.66 0 1.32 0 2 0 C1.81824219 0.53367187 1.63648438 1.06734375 1.44921875 1.6171875 C-2.67078731 13.59393369 -2.67078731 13.59393369 -5 26 C-5.99 26.33 -6.98 26.66 -8 27 C-8 28.65 -8 30.3 -8 32 C-7.01 32.33 -6.02 32.66 -5 33 C-5 34.32 -5 35.64 -5 37 C-8 39.25 -8 39.25 -11 41 C-10.71921539 37.66014098 -10.37301388 34.33079451 -10 31 C-9.90074219 30.07316406 -9.80148438 29.14632812 -9.69921875 28.19140625 C-8.35746211 18.2027735 -4.63692695 8.91716721 0 0 Z " fill="#C40627" transform="translate(141,104)"/>
<path d="M0 0 C0.33 0 0.66 0 1 0 C1.05155527 7.0210448 1.08608358 14.04203924 1.10986328 21.06323242 C1.11979748 23.4418317 1.1333494 25.82041918 1.15087891 28.19897461 C1.25899303 43.26817614 0.78434667 58.03019643 -1 73 C-1.33 73 -1.66 73 -2 73 C-2.10230752 61.71941578 -2.06233568 50.52617936 -1.2890625 39.26953125 C-0.81356248 31.50141362 -0.6561691 23.71617163 -0.4375 15.9375 C-0.41535431 15.15242065 -0.39320862 14.36734131 -0.37039185 13.55847168 C-0.24357851 9.03906923 -0.12035185 4.51957977 0 0 Z " fill="#AD223C" transform="translate(322,70)"/>
<path d="M0 0 C0.66 0.33 1.32 0.66 2 1 C-3.59995904 9.68150075 -9.61504958 17.88797283 -16 26 C-16.66 24.68 -17.32 23.36 -18 22 C-17.34 21.67 -16.68 21.34 -16 21 C-16.185625 20.21625 -16.37125 19.4325 -16.5625 18.625 C-17 16 -17 16 -16 14 C-12.5 13.5 -12.5 13.5 -9 13 C-8.67 12.34 -8.34 11.68 -8 11 C-6.66076224 9.11430793 -5.30430971 7.24080373 -3.9375 5.375 C-3.20402344 4.37210938 -2.47054688 3.36921875 -1.71484375 2.3359375 C-1.14894531 1.56507813 -0.58304687 0.79421875 0 0 Z " fill="#BE0B29" transform="translate(266,140)"/>
<path d="M0 0 C1.04449911 3.13349732 0.93423645 3.98968256 0 7 C-0.66 7 -1.32 7 -2 7 C-2.10957031 7.58007812 -2.21914063 8.16015625 -2.33203125 8.7578125 C-3.3143365 13.59746277 -4.54821911 17.65366116 -7 22 C-7.66 22 -8.32 22 -9 22 C-9 22.66 -9 23.32 -9 24 C-9.66 23.67 -10.32 23.34 -11 23 C-11.33 23.66 -11.66 24.32 -12 25 C-12.66 25 -13.32 25 -14 25 C-12.68071914 21.48283007 -11.12651609 18.34691482 -9.1796875 15.13671875 C-8.37724609 13.80737305 -8.37724609 13.80737305 -7.55859375 12.45117188 C-6.72521484 11.0831543 -6.72521484 11.0831543 -5.875 9.6875 C-5.31167969 8.75615234 -4.74835938 7.82480469 -4.16796875 6.86523438 C-2.7819554 4.57478858 -1.39254372 2.28647924 0 0 Z " fill="#BC1E38" transform="translate(266,64)"/>
<path d="M0 0 C0.33 0 0.66 0 1 0 C1.05855176 3.52076232 1.0937806 7.0413976 1.125 10.5625 C1.14175781 11.55314453 1.15851563 12.54378906 1.17578125 13.56445312 C1.26143858 26.4558816 1.26143858 26.4558816 -2.5 30.6875 C-2.995 31.120625 -3.49 31.55375 -4 32 C-5.17574711 34.09989652 -5.17574711 34.09989652 -6 36 C-6.66 36 -7.32 36 -8 36 C-7.05531491 33.11533661 -6.09784783 30.25226395 -5 27.421875 C-1.63928608 18.4424675 -0.80053669 9.48003975 0 0 Z " fill="#BA1E38" transform="translate(275,28)"/>
<path d="M0 0 C0.56460938 0.48726562 1.12921875 0.97453125 1.7109375 1.4765625 C1.3809375 2.1365625 1.0509375 2.7965625 0.7109375 3.4765625 C0.0509375 3.1465625 -0.6090625 2.8165625 -1.2890625 2.4765625 C-1.2890625 1.8165625 -1.2890625 1.1565625 -1.2890625 0.4765625 C-5.83189696 0.92376597 -10.37304735 1.38627622 -14.9140625 1.8515625 C-16.84185547 2.04105469 -16.84185547 2.04105469 -18.80859375 2.234375 C-20.67451172 2.42773438 -20.67451172 2.42773438 -22.578125 2.625 C-23.71975098 2.74020996 -24.86137695 2.85541992 -26.03759766 2.97412109 C-29.32666765 3.48237354 -32.20565947 4.22622634 -35.2890625 5.4765625 C-35.6190625 6.1365625 -35.9490625 6.7965625 -36.2890625 7.4765625 C-36.9490625 7.4765625 -37.6090625 7.4765625 -38.2890625 7.4765625 C-37.33733238 4.8809349 -36.75446824 3.71149006 -34.24609375 2.4453125 C-25.56056226 -0.40014564 -7.96202158 -5.29895634 0 0 Z " fill="#AD354B" transform="translate(314.2890625,20.5234375)"/>
<path d="M0 0 C2.14399555 3.57949649 2.55887913 6.96465488 3.0703125 11.07421875 C3.15626678 11.75748734 3.24222107 12.44075592 3.33078003 13.14472961 C3.51070886 14.58912913 3.68699208 16.03398686 3.85986328 17.47924805 C4.12216824 19.66391502 4.39803484 21.84654558 4.67578125 24.02929688 C5.54783847 31.04276741 6.23840798 37.91928289 6 45 C5.67 45 5.34 45 5 45 C3.60458826 38.75451639 2.69058526 32.63616372 2.24609375 26.25 C2.12818523 23.96694182 2.12818523 23.96694182 1 22 C0.84777027 20.33434251 0.75082785 18.66343504 0.68359375 16.9921875 C0.64169922 16.00605469 0.59980469 15.01992188 0.55664062 14.00390625 C0.51732422 12.97136719 0.47800781 11.93882813 0.4375 10.875 C0.39431641 9.83472656 0.35113281 8.79445313 0.30664062 7.72265625 C0.2003712 5.14857472 0.09833417 2.57439492 0 0 Z " fill="#B6223F" transform="translate(316,24)"/>
<path d="M0 0 C0.33 0 0.66 0 1 0 C1.04898438 1.134375 1.09796875 2.26875 1.1484375 3.4375 C1.2235414 4.95835398 1.29908584 6.47918625 1.375 8 C1.4059375 8.74378906 1.436875 9.48757812 1.46875 10.25390625 C1.66066717 13.93231875 2.00413327 17.32286389 3 20.875 C4.35941951 25.86242446 4.45472493 30.85627393 4.625 36 C4.66367188 36.96550781 4.70234375 37.93101562 4.7421875 38.92578125 C4.83556941 41.2836744 4.92134329 43.64157756 5 46 C2.62272074 41.64451544 2.06809128 37.42831082 1.375 32.5625 C1.24311279 31.64831299 1.11122559 30.73412598 0.9753418 29.79223633 C-0.33543167 19.85764108 -0.273525 9.99885846 0 0 Z " fill="#B4213D" transform="translate(124,171)"/>
<path d="M0 0 C1.09374411 3.28123232 0.89111758 4.29338184 0.125 7.5625 C-1.50059823 15.13031877 -2.06749727 22.46833883 -1.96875 30.1953125 C-2.03130532 35.80965229 -2.54858446 41.40567173 -3 47 C-3.33 47 -3.66 47 -4 47 C-4.07481328 42.05618504 -4.12891154 37.11270811 -4.16479492 32.16845703 C-4.17977234 30.49066417 -4.20016154 28.81290972 -4.22631836 27.13525391 C-4.50704826 8.65111671 -4.50704826 8.65111671 -1 1 C-0.67 0.67 -0.34 0.34 0 0 Z " fill="#B30D2B" transform="translate(155,176)"/>
<path d="M0 0 C0.66 0.33 1.32 0.66 2 1 C0.13618159 6.59145524 -2.26460037 11.25939458 -5.37109375 16.2578125 C-8.20158 21.02280374 -10.5846292 26.01508579 -13 31 C-13.66 31 -14.32 31 -15 31 C-13.68081552 26.73074054 -12.03926612 22.89821204 -9.9609375 18.9453125 C-9.38085938 17.83671875 -8.80078125 16.728125 -8.203125 15.5859375 C-7.29820312 13.87277344 -7.29820312 13.87277344 -6.375 12.125 C-5.45847656 10.37703125 -5.45847656 10.37703125 -4.5234375 8.59375 C-3.01959498 5.72705019 -1.51166982 2.86257779 0 0 Z " fill="#B33C52" transform="translate(257,220)"/>
<path d="M0 0 C0.33 0.66 0.66 1.32 1 2 C0.236875 3.010625 -0.52625 4.02125 -1.3125 5.0625 C-3.11999874 7.57179295 -4.24273039 9.59099574 -5.4375 12.5 C-7.31912212 16.71483356 -9.86564942 19.66277884 -13 23 C-14.32 22.67 -15.64 22.34 -17 22 C-16.52691406 21.50113281 -16.05382812 21.00226563 -15.56640625 20.48828125 C-9.67382826 14.09029696 -4.81675114 7.21397683 0 0 Z " fill="#B3263E" transform="translate(251,89)"/>
<path d="M0 0 C0 0.66 0 1.32 0 2 C-1.11375 2.433125 -2.2275 2.86625 -3.375 3.3125 C-7.17512334 4.69911119 -7.17512334 4.69911119 -9 8 C-8.34 8.33 -7.68 8.66 -7 9 C-8.6396875 9.61875 -8.6396875 9.61875 -10.3125 10.25 C-13.55719525 11.61722038 -15.05024489 13.02405799 -17 16 C-17.66 16 -18.32 16 -19 16 C-19.99 18.475 -19.99 18.475 -21 21 C-21.33 20.34 -21.66 19.68 -22 19 C-21.0980639 17.51180543 -20.17785871 16.03467187 -19.25 14.5625 C-18.48429688 13.32693359 -18.48429688 13.32693359 -17.703125 12.06640625 C-15.78401818 9.73794866 -14.88039766 9.50543976 -12 9 C-11.731875 8.4225 -11.46375 7.845 -11.1875 7.25 C-8.96011294 3.02968767 -4.77007773 0 0 0 Z " fill="#C01131" transform="translate(175,60)"/>
<path d="M0 0 C1.22811116 3.68433348 0.28256556 4.79556189 -1.31640625 8.1640625 C-2.19831002 10.17198013 -2.19831002 10.17198013 -1.875 13.1875 C-2 16 -2 16 -4.4375 18.25 C-5.283125 18.8275 -6.12875 19.405 -7 20 C-7.33 20.66 -7.66 21.32 -8 22 C-8.66 22 -9.32 22 -10 22 C-8.4719611 16.90117545 -6.28963144 12.34334341 -3.875 7.625 C-3.50246094 6.88894531 -3.12992188 6.15289062 -2.74609375 5.39453125 C-1.8343878 3.59449642 -0.91770068 1.79698598 0 0 Z " fill="#B5273F" transform="translate(152,81)"/>
<path d="M0 0 C0.99 0.33 1.98 0.66 3 1 C0.42493593 3.63322222 -2.16141918 6.25506959 -4.75 8.875 C-5.84441406 9.99455078 -5.84441406 9.99455078 -6.9609375 11.13671875 C-7.66992188 11.85214844 -8.37890625 12.56757813 -9.109375 13.3046875 C-9.75874023 13.96452637 -10.40810547 14.62436523 -11.07714844 15.30419922 C-12.96893948 16.97260712 -14.69941016 17.99293246 -17 19 C-17 18.01 -17 17.02 -17 16 C-15.35666496 14.96210419 -13.68756133 13.96432076 -12 13 C-11.34 12.01 -10.68 11.02 -10 10 C-9.34 10 -8.68 10 -8 10 C-7.67 9.01 -7.34 8.02 -7 7 C-6.34 7 -5.68 7 -5 7 C-4.67 5.35 -4.34 3.7 -4 2 C-3.01 2 -2.02 2 -1 2 C-0.67 1.34 -0.34 0.68 0 0 Z " fill="#AF1B36" transform="translate(273,240)"/>
<path d="M0 0 C0.33 0.99 0.66 1.98 1 3 C0.0925 3.721875 -0.815 4.44375 -1.75 5.1875 C-5.20835126 8.07489704 -8.07524885 11.09610058 -10.0625 15.1875 C-11 17 -11 17 -14 19 C-16.1875 18.625 -16.1875 18.625 -18 18 C-17.505 16.515 -17.505 16.515 -17 15 C-15.35 15 -13.7 15 -12 15 C-11.64615234 14.17048828 -11.64615234 14.17048828 -11.28515625 13.32421875 C-9.6835163 10.42763586 -7.67725327 8.24638919 -5.4375 5.8125 C-4.63183594 4.93207031 -3.82617188 4.05164063 -2.99609375 3.14453125 C-1 1 -1 1 0 0 Z " fill="#AE2C43" transform="translate(233,113)"/>
<path d="M0 0 C0.66 0.33 1.32 0.66 2 1 C1.73445312 1.51949219 1.46890625 2.03898438 1.1953125 2.57421875 C-1.06398592 7.01456731 -1.06398592 7.01456731 -2.9375 11.625 C-4.40135418 14.89714464 -6.70598594 17.25837344 -9 20 C-10.05794332 21.96996343 -11.07836462 23.96270075 -12 26 C-13 23 -13 23 -12.21484375 21.08984375 C-11.79332031 20.37957031 -11.37179688 19.66929687 -10.9375 18.9375 C-10.47601563 18.14859375 -10.01453125 17.3596875 -9.5390625 16.546875 C-8.77722656 15.28617187 -8.77722656 15.28617187 -8 14 C-7.20722656 12.67742187 -7.20722656 12.67742187 -6.3984375 11.328125 C-5.3820688 9.63584608 -4.36040373 7.94673012 -3.33203125 6.26171875 C-2.12401719 4.21057464 -1.03461602 2.14278294 0 0 Z " fill="#B5364F" transform="translate(240,252)"/>
<path d="M0 0 C2.475 0.99 2.475 0.99 5 2 C5 2.99 5 3.98 5 5 C5.99 5.33 6.98 5.66 8 6 C8.6875 8.0625 8.6875 8.0625 9 10 C9.66 10 10.32 10 11 10 C11.28875 10.763125 11.5775 11.52625 11.875 12.3125 C12.96269013 15.15029308 12.96269013 15.15029308 15 18 C11.99851686 16.68313741 10.21668946 15.39104261 8.203125 12.8125 C7.71972656 12.19632812 7.23632812 11.58015625 6.73828125 10.9453125 C6.00158203 9.98238281 6.00158203 9.98238281 5.25 9 C4.74339844 8.35804688 4.23679688 7.71609375 3.71484375 7.0546875 C0 2.26844677 0 2.26844677 0 0 Z " fill="#B11C34" transform="translate(150,260)"/>
<path d="M0 0 C0.66 0 1.32 0 2 0 C0.11178127 6.06217591 -2.17692561 11.7160272 -4.859375 17.46875 C-6.11583502 20.25705854 -7.12854466 23.06874112 -8 26 C-9.44511216 21.50726278 -7.93696377 18.34240943 -6.25 14.125 C-5.98445312 13.43019531 -5.71890625 12.73539063 -5.4453125 12.01953125 C-3.84380878 7.89138332 -2.04621475 3.93218377 0 0 Z " fill="#B32D46" transform="translate(141,104)"/>
<path d="M0 0 C0.92232422 0.28617188 0.92232422 0.28617188 1.86328125 0.578125 C0.07352969 2.05960832 -1.71857932 3.53824406 -3.51171875 5.015625 C-5.00832031 6.25119141 -5.00832031 6.25119141 -6.53515625 7.51171875 C-10.62819432 10.76279553 -12.93915859 10.67437611 -18.13671875 10.578125 C-18.46671875 9.918125 -18.79671875 9.258125 -19.13671875 8.578125 C-18.27046875 8.64 -17.40421875 8.701875 -16.51171875 8.765625 C-12.63719013 8.55037341 -10.40712826 7.63163795 -7.13671875 5.578125 C-6.80671875 4.588125 -6.47671875 3.598125 -6.13671875 2.578125 C-2.87799152 -0.56823233 -2.87799152 -0.56823233 0 0 Z " fill="#A81F38" transform="translate(222.13671875,193.421875)"/>
<path d="M0 0 C0.66 0 1.32 0 2 0 C3.66666667 8.33333333 5.33333333 16.66666667 7 25 C6.34 25 5.68 25 5 25 C2.09528789 16.76998236 0.97836642 8.63264485 0 0 Z " fill="#B02940" transform="translate(208,102)"/>
<path d="M0 0 C0.99 0.33 1.98 0.66 3 1 C4.40070201 4.25608216 3.81848927 6.87028325 3.0625 10.25 C2.86785156 11.14203125 2.67320312 12.0340625 2.47265625 12.953125 C2.31667969 13.62859375 2.16070312 14.3040625 2 15 C1.34 15 0.68 15 0 15 C-0.19601608 13.25093341 -0.38147403 11.50068154 -0.5625 9.75 C-0.66691406 8.77546875 -0.77132812 7.8009375 -0.87890625 6.796875 C-0.98974468 4.2368648 -0.77738092 2.41851841 0 0 Z " fill="#BE1933" transform="translate(209,53)"/>
<path d="M0 0 C0.99 0.33 1.98 0.66 3 1 C-1.32893185 6.18419194 -5.76564995 10.72706118 -11 15 C-10.25 12.0625 -10.25 12.0625 -9 9 C-6.875 8.125 -6.875 8.125 -5 8 C-5 7.01 -5 6.02 -5 5 C-3.35 4.34 -1.7 3.68 0 3 C0 2.01 0 1.02 0 0 Z " fill="#B81835" transform="translate(237,176)"/>
<path d="M0 0 C0.66 0 1.32 0 2 0 C2.66 3.63 3.32 7.26 4 11 C5.32 11.33 6.64 11.66 8 12 C8 14.31 8 16.62 8 19 C2.88234061 14.85054644 1.28029817 10.40149085 0 4 C0 2.68 0 1.36 0 0 Z " fill="#B91733" transform="translate(183,160)"/>
<path d="M0 0 C0.33 0 0.66 0 1 0 C1.18702708 4.86270409 0.91832622 9.48765372 0.25 14.3125 C0.11078125 15.31925781 -0.0284375 16.32601562 -0.171875 17.36328125 C-1.14992326 20.47735 -2.24143866 21.35719823 -5 23 C-4.5978125 21.205625 -4.5978125 21.205625 -4.1875 19.375 C-2.75302237 12.92501064 -1.37882015 6.46207045 0 0 Z " fill="#B52943" transform="translate(272,176)"/>
<path d="M0 0 C0.33 0 0.66 0 1 0 C1.39839753 4.51517196 0.06079662 7.03692957 -2 11 C-2.309375 12.2375 -2.61875 13.475 -2.9375 14.75 C-4 18 -4 18 -6.125 19.4375 C-6.74375 19.623125 -7.3625 19.80875 -8 20 C-6.54884678 15.42111848 -4.79418096 11.02350565 -2.875 6.625 C-2.59785156 5.98433594 -2.32070313 5.34367188 -2.03515625 4.68359375 C-1.35899615 3.12143075 -0.67981293 1.56057685 0 0 Z " fill="#B02F46" transform="translate(266,199)"/>
<path d="M0 0 C1.7492214 -0.08142927 3.49954542 -0.13938541 5.25 -0.1875 C6.22453125 -0.22230469 7.1990625 -0.25710937 8.203125 -0.29296875 C11.37468742 0.03924798 12.67040307 0.88672279 15 3 C14.67 3.66 14.34 4.32 14 5 C13.34 4.67 12.68 4.34 12 4 C12 3.34 12 2.68 12 2 C11.01 2.165 10.02 2.33 9 2.5 C4.97267058 3.08474517 1.06525377 3.07132024 -3 3 C-2.01 2.67 -1.02 2.34 0 2 C0 1.34 0 0.68 0 0 Z " fill="#B11E38" transform="translate(301,19)"/>
<path d="M0 0 C1.09374411 3.28123232 0.89111758 4.29338184 0.125 7.5625 C-0.99277154 12.69065457 -1.57741559 17.77329803 -2 23 C-2.33 23 -2.66 23 -3 23 C-3.08144943 20.29105233 -3.14070614 17.58458737 -3.1875 14.875 C-3.21263672 14.11445313 -3.23777344 13.35390625 -3.26367188 12.5703125 C-3.32797453 7.5975739 -2.65594442 4.36383518 0 0 Z " fill="#B22741" transform="translate(155,176)"/>
<path d="M0 0 C0.33 0.66 0.66 1.32 1 2 C0.07470849 4.03564133 -0.93988057 6.03120677 -2 8 C-3.84568141 11.61753557 -5.54923176 15.20568306 -7 19 C-7.33 19 -7.66 19 -8 19 C-8.56093761 14.51249916 -7.05184496 11.6976642 -4.97265625 7.8671875 C-3.86746821 5.86545514 -3.86746821 5.86545514 -3 3 C-2.34 3.33 -1.68 3.66 -1 4 C-0.67 2.68 -0.34 1.36 0 0 Z " fill="#C01633" transform="translate(245,247)"/>
<path d="M0 0 C0.66 0 1.32 0 2 0 C2.02725341 1.7290774 2.04650987 3.45828176 2.0625 5.1875 C2.07410156 6.15042969 2.08570313 7.11335937 2.09765625 8.10546875 C2.00486622 10.85576513 1.62111685 13.32479591 1 16 C0.34 16 -0.32 16 -1 16 C-0.67 10.72 -0.34 5.44 0 0 Z " fill="#B72C46" transform="translate(274,160)"/>
<path d="M0 0 C-4.13418591 1.94456928 -7.769997 2.37028021 -12.3125 2.625 C-13.56675781 2.69976563 -14.82101562 2.77453125 -16.11328125 2.8515625 C-17.06589844 2.90054687 -18.01851563 2.94953125 -19 3 C-18.67 2.34 -18.34 1.68 -18 1 C-14.98046875 0.33203125 -14.98046875 0.33203125 -11.1875 -0.1875 C-9.94355469 -0.36667969 -8.69960938 -0.54585937 -7.41796875 -0.73046875 C-4.51386713 -0.95947791 -2.69932383 -0.95870192 0 0 Z " fill="#BD1533" transform="translate(298,23)"/>
<path d="M0 0 C2.97100833 2.78977035 5.19659143 5.58148913 7.3125 9.0625 C7.84488281 9.91972656 8.37726563 10.77695313 8.92578125 11.66015625 C10 14 10 14 9 17 C7.86676537 15.29711802 6.74377765 13.58741477 5.625 11.875 C4.99851563 10.92367187 4.37203125 9.97234375 3.7265625 8.9921875 C2.02318931 6.04018781 0.95806591 3.26129506 0 0 Z " fill="#B1223C" transform="translate(137,239)"/>
<path d="M0 0 C0.66 0.33 1.32 0.66 2 1 C0.2589664 6.13604912 -1.30250259 9.92000285 -5 14 C-4.46515599 8.65155992 -2.53309233 4.64203897 0 0 Z " fill="#B52F47" transform="translate(257,220)"/>
<path d="M0 0 C1.37432457 3.81756824 0.67975039 7.07255329 0 11 C-0.99 11.33 -1.98 11.66 -3 12 C-3 13.65 -3 15.3 -3 17 C-3.66 17.33 -4.32 17.66 -5 18 C-4.33153405 11.7164201 -2.84031501 5.68063001 0 0 Z " fill="#BF1231" transform="translate(136,119)"/>
<path d="M0 0 C1 2 1 2 0.375 4.8125 C-1.18652927 8.43240877 -3.12598312 10.34706134 -6 13 C-6.33 13.66 -6.66 14.32 -7 15 C-7.66 15 -8.32 15 -9 15 C-7.18690997 11.22272911 -5.0926741 7.62730178 -3 4 C-2.34 4 -1.68 4 -1 4 C-0.67 2.68 -0.34 1.36 0 0 Z " fill="#BF122E" transform="translate(255,85)"/>
<path d="M0 0 C0.33 0 0.66 0 1 0 C1.3125 2.75 1.3125 2.75 1 6 C-1.4375 8.1875 -1.4375 8.1875 -4 10 C-4.33 10.99 -4.66 11.98 -5 13 C-5.66 13 -6.32 13 -7 13 C-5.37621488 8.27626146 -2.89006982 4.05818166 0 0 Z " fill="#B33146" transform="translate(259,76)"/>
<path d="M0 0 C0.33 1.32 0.66 2.64 1 4 C0.34 4 -0.32 4 -1 4 C-0.67 4.99 -0.34 5.98 0 7 C-0.99 7.495 -0.99 7.495 -2 8 C-3.05352843 10.30965848 -4.05719096 12.6429774 -5 15 C-5.66 15 -6.32 15 -7 15 C-5.67231025 9.20644472 -3.33455096 4.9000081 0 0 Z " fill="#BF1030" transform="translate(253,232)"/>
<path d="M0 0 C0.66 0.33 1.32 0.66 2 1 C-1.96 6.94 -1.96 6.94 -6 13 C-6.33 12.01 -6.66 11.02 -7 10 C-5.56640625 7.51953125 -5.56640625 7.51953125 -3.5625 4.8125 C-2.90378906 3.91144531 -2.24507813 3.01039063 -1.56640625 2.08203125 C-1.04949219 1.39496094 -0.53257812 0.70789063 0 0 Z " fill="#AF1C36" transform="translate(266,140)"/>
<path d="M0 0 C0 3.63195496 -0.95453155 4.74713911 -3 7.6875 C-3.556875 8.49574219 -4.11375 9.30398437 -4.6875 10.13671875 C-5.120625 10.75160156 -5.55375 11.36648437 -6 12 C-7.33332095 9.3333581 -6.67102033 7.83319697 -6 5 C-5.01 5 -4.02 5 -3 5 C-3 4.01 -3 3.02 -3 2 C-2.01 1.34 -1.02 0.68 0 0 Z " fill="#B11F37" transform="translate(290,218)"/>
<path d="M0 0 C0.33 0 0.66 0 1 0 C0.46148032 5.27749285 -0.77343836 9.25645564 -3 14 C-3.66 14 -4.32 14 -5 14 C-3.46527032 9.27775484 -1.76054874 4.64144669 0 0 Z " fill="#B33047" transform="translate(272,50)"/>
<path d="M0 0 C0.66 0.33 1.32 0.66 2 1 C0.35 4.3 -1.3 7.6 -3 11 C-3.33 11 -3.66 11 -4 11 C-4.36630156 7.06225823 -4.30233203 5.43460229 -2 2.125 C-1.34 1.42375 -0.68 0.7225 0 0 Z " fill="#B21E3D" transform="translate(168,143)"/>
<path d="M0 0 C0.66 0.33 1.32 0.66 2 1 C1.67 2.32 1.34 3.64 1 5 C2.65 4.67 4.3 4.34 6 4 C5.67 4.66 5.34 5.32 5 6 C2.67843403 6.40729228 0.3431213 6.74438677 -2 7 C-1.34 4.69 -0.68 2.38 0 0 Z " fill="#C10C2C" transform="translate(231,270)"/>
<path d="M0 0 C0.86625 0.3403125 0.86625 0.3403125 1.75 0.6875 C-4 5.6875 -4 5.6875 -6.25 5.6875 C-6.25 4.6975 -6.25 3.7075 -6.25 2.6875 C-4.08146295 0.51896295 -3.10906228 -0.43181421 0 0 Z " fill="#B51B35" transform="translate(222.25,193.3125)"/>
<path d="M0 0 C0.33 1.32 0.66 2.64 1 4 C0.38125 4.226875 -0.2375 4.45375 -0.875 4.6875 C-3.61410209 6.37929835 -4.05024472 7.99244161 -5 11 C-5.33 10.34 -5.66 9.68 -6 9 C-4.02 6.03 -2.04 3.06 0 0 Z " fill="#B42C4A" transform="translate(159,70)"/>
<path d="M0 0 C0.33 0.66 0.66 1.32 1 2 C-0.21484375 4.3828125 -0.21484375 4.3828125 -1.9375 7.125 C-2.50339844 8.03507813 -3.06929688 8.94515625 -3.65234375 9.8828125 C-4.09707031 10.58148438 -4.54179687 11.28015625 -5 12 C-5.68359375 10.265625 -5.68359375 10.265625 -6 8 C-4.78515625 5.859375 -4.78515625 5.859375 -3.0625 3.75 C-2.49660156 3.04359375 -1.93070312 2.3371875 -1.34765625 1.609375 C-0.90292969 1.07828125 -0.45820313 0.5471875 0 0 Z " fill="#B3263F" transform="translate(297,206)"/>
<path d="M0 0 C0 0.99 0 1.98 0 3 C-3 5 -3 5 -5.1875 4.625 C-5.785625 4.41875 -6.38375 4.2125 -7 4 C-6.67 3.01 -6.34 2.02 -6 1 C-4.02 0.67 -2.04 0.34 0 0 Z " fill="#B61B31" transform="translate(222,127)"/>
<path d="M0 0 C0 3.39593478 -0.52165948 4.06619881 -2.5 6.6875 C-2.9640625 7.31011719 -3.428125 7.93273437 -3.90625 8.57421875 C-4.2671875 9.04472656 -4.628125 9.51523438 -5 10 C-5.6484375 8.16796875 -5.6484375 8.16796875 -6 6 C-3.625 3.3125 -3.625 3.3125 -1 1 C-0.67 0.67 -0.34 0.34 0 0 Z " fill="#B21D37" transform="translate(282,230)"/>
<path d="M0 0 C0.6875 1.8125 0.6875 1.8125 1 4 C-0.3125 5.75 -0.3125 5.75 -2 7 C-2.66 7 -3.32 7 -4 7 C-3.39816251 4.97954558 -2.72693904 2.97888961 -2 1 C-1.34 0.67 -0.68 0.34 0 0 Z " fill="#BA2541" transform="translate(262,212)"/>
<path d="M0 0 C0.66 0.33 1.32 0.66 2 1 C0.9024777 3.99324263 0.32317108 4.84610901 -2.625 6.25 C-3.40875 6.4975 -4.1925 6.745 -5 7 C-3.47793991 4.37098712 -2.15634036 2.15634036 0 0 Z " fill="#C30E2E" transform="translate(231,117)"/>
<path d="M0 0 C0.99 0.33 1.98 0.66 3 1 C1.35 2.98 -0.3 4.96 -2 7 C-2.66 5.68 -3.32 4.36 -4 3 C-3.01 2.67 -2.02 2.34 -1 2 C-0.67 1.34 -0.34 0.68 0 0 Z " fill="#B71832" transform="translate(252,159)"/>
</svg>
